<svg width="269" height="68" xmlns="http://www.w3.org/2000/svg" xmlns:xlink="http://www.w3.org/1999/xlink" xml:space="preserve" overflow="hidden"><defs><clipPath id="clip0"><rect x="935" y="485" width="269" height="68"/></clipPath></defs><g clip-path="url(#clip0)" transform="translate(-935 -485)"><path d="M20.0952 6.99214C17.4622 3.86825 15.195 0.695555 14.7318 0.0366082 14.683-0.0122027 14.6098-0.0122027 14.5611 0.0366082 14.0979 0.695555 11.8307 3.86825 9.1977 6.99214-13.4016 35.8148 12.7571 55.2661 12.7571 55.2661L12.9765 55.4125C13.1715 58.4142 13.6591 62.7341 13.6591 62.7341L14.6342 62.7341 15.6094 62.7341C15.6094 62.7341 16.097 58.4387 16.292 55.4125L16.5114 55.2417C16.5358 55.2661 42.6946 35.8148 20.0952 6.99214ZM14.6342 54.8267C14.6342 54.8267 13.4641 53.8261 13.1471 53.3138L13.1471 53.2647 14.5611 21.8795C14.5611 21.7818 14.7074 21.7818 14.7074 21.8795L16.1214 53.2647 16.1214 53.3138C15.8044 53.8261 14.6342 54.8267 14.6342 54.8267Z" fill="#001E2B" transform="matrix(1 0 0 1.00206 935 485)"/><path d="M63.5887 48.4222 52.6881 21.7986 52.6637 21.725 44.1826 21.725 44.1826 23.5147 45.5513 23.5147C45.9668 23.5147 46.3578 23.6863 46.6512 23.9804 46.9444 24.2746 47.0911 24.667 47.0911 25.0836L46.8468 51.8789C46.8468 52.7123 46.1625 53.3987 45.3314 53.4233L43.9383 53.4478 43.9383 55.2129 52.1994 55.2129 52.1994 53.4478 51.3438 53.4233C50.5129 53.3987 49.8285 52.7123 49.8285 51.8789L49.8285 26.6281 61.7069 55.2129C61.8778 55.6295 62.2689 55.8993 62.709 55.8993 63.1488 55.8993 63.5399 55.6295 63.711 55.2129L75.3205 27.2654 75.4916 51.8789C75.4916 52.7369 74.8071 53.4233 73.9518 53.4478L73.0718 53.4478 73.0718 55.2129 82.7505 55.2129 82.7505 53.4478 81.4306 53.4478C80.5997 53.4478 79.9152 52.7369 79.8908 51.9033L79.8176 25.108C79.8176 24.2501 80.5018 23.5637 81.333 23.5392L82.7505 23.5147 82.7505 21.725 74.4893 21.725 63.5887 48.4222Z" fill="#001E2B" transform="matrix(1 0 0 1.00206 935 485)"/><path d="M139.594 52.9813C139.324 52.7113 139.177 52.343 139.177 51.9009L139.177 38.738C139.177 36.2332 138.442 34.2685 136.972 32.8688 135.526 31.4689 133.517 30.7568 131.018 30.7568 127.513 30.7568 124.744 32.1811 122.809 34.9807 122.784 35.0298 122.711 35.0545 122.637 35.0545 122.563 35.0545 122.515 35.0051 122.515 34.9317L121.608 31.4198 120.088 31.4198 116.192 33.6545 116.192 34.8824 117.197 34.8824C117.663 34.8824 118.055 35.0051 118.324 35.251 118.594 35.4965 118.741 35.8649 118.741 36.3804L118.741 51.8762C118.741 52.3183 118.594 52.6867 118.324 52.9569 118.055 53.2268 117.687 53.3743 117.246 53.3743L116.266 53.3743 116.266 55.167 125.234 55.167 125.234 53.3743 124.254 53.3743C123.813 53.3743 123.446 53.2268 123.176 52.9569 122.907 52.6867 122.759 52.3183 122.759 51.8762L122.759 41.6113C122.759 40.3097 123.054 39.0082 123.593 37.731 124.156 36.4788 124.989 35.4228 126.092 34.6124 127.195 33.802 128.518 33.409 130.037 33.409 131.753 33.409 133.051 33.9492 133.86 35.0298 134.669 36.1104 135.085 37.5101 135.085 39.18L135.085 51.8518C135.085 52.2936 134.938 52.662 134.669 52.9322 134.399 53.2024 134.032 53.3496 133.59 53.3496L132.61 53.3496 132.61 55.1423 141.579 55.1423 141.579 53.3496 140.599 53.3496C140.231 53.3989 139.888 53.2515 139.594 52.9813Z" fill="#001E2B" transform="matrix(1 0 0 1.00206 935 485)"/><path d="M221.533 23.7296C219.054 22.4095 216.284 21.725 213.294 21.725L201.628 21.725 201.628 23.5096 202.77 23.5096C203.208 23.5096 203.597 23.6807 203.985 24.0718 204.35 24.4385 204.544 24.8542 204.544 25.2941L204.544 51.598C204.544 52.0378 204.35 52.4535 203.985 52.8202 203.621 53.1868 203.208 53.3823 202.77 53.3823L201.628 53.3823 201.628 55.167 213.294 55.167C216.284 55.167 219.054 54.4825 221.533 53.1624 224.012 51.8423 226.03 49.8866 227.488 47.3933 228.946 44.8998 229.7 41.893 229.7 38.4704 229.7 35.0481 228.946 32.0657 227.488 29.5478 226.005 27.0055 224.012 25.0741 221.533 23.7296ZM225.009 38.4216C225.009 41.5507 224.45 44.1907 223.356 46.3176 222.263 48.4444 220.804 50.0333 219.006 51.0602 217.207 52.0869 215.214 52.6002 213.075 52.6002L210.718 52.6002C210.28 52.6002 209.892 52.4291 209.503 52.0378 209.138 51.6712 208.944 51.2557 208.944 50.8156L208.944 26.0032C208.944 25.5631 209.114 25.172 209.503 24.7807 209.867 24.4141 210.28 24.2185 210.718 24.2185L213.075 24.2185C215.214 24.2185 217.207 24.7319 219.006 25.7586 220.804 26.7853 222.263 28.3744 223.356 30.501 224.45 32.6523 225.009 35.3169 225.009 38.4216Z" fill="#001E2B" transform="matrix(1 0 0 1.00206 935 485)"/><path d="M257.276 40.2062C256.197 38.9594 254.115 37.9082 251.666 37.3458 255.047 35.6591 256.785 33.2879 256.785 30.2322 256.785 28.5699 256.346 27.0787 255.462 25.8074 254.581 24.5364 253.331 23.5096 251.74 22.8006 250.146 22.0917 248.283 21.725 246.176 21.725L232.971 21.725 232.971 23.5096 234.025 23.5096C234.465 23.5096 234.857 23.6807 235.25 24.0718 235.617 24.4385 235.813 24.8542 235.813 25.2941L235.813 51.598C235.813 52.0378 235.617 52.4535 235.25 52.8202 234.882 53.1868 234.465 53.3823 234.025 53.3823L232.873 53.3823 232.873 55.167 247.207 55.167C249.386 55.167 251.42 54.8003 253.258 54.0668 255.096 53.3335 256.565 52.258 257.62 50.84 258.696 49.4223 259.236 47.6865 259.236 45.6819 259.212 43.5306 258.574 41.6972 257.276 40.2062ZM240.836 52.0622C240.468 51.6956 240.272 51.2801 240.272 50.84L240.272 39.0326 247.085 39.0326C249.484 39.0326 251.322 39.6438 252.596 40.866 253.871 42.0885 254.508 43.6773 254.508 45.6331 254.508 46.8065 254.212 47.9555 253.675 49.0066 253.111 50.0823 252.277 50.9379 251.151 51.598 250.048 52.258 248.676 52.6002 247.085 52.6002L242.061 52.6002C241.62 52.6002 241.228 52.4291 240.836 52.0622ZM240.297 36.5147 240.297 26.0276C240.297 25.5875 240.468 25.1964 240.86 24.8051 241.228 24.4385 241.644 24.243 242.085 24.243L245.32 24.243C247.646 24.243 249.362 24.8298 250.441 25.9541 251.517 27.1031 252.057 28.5699 252.057 30.3789 252.057 32.2368 251.542 33.728 250.539 34.8523 249.533 35.9525 248.015 36.5147 246.006 36.5147L240.297 36.5147Z" fill="#001E2B" transform="matrix(1 0 0 1.00206 935 485)"/><path d="M105.452 32.3161C103.579 31.2929 101.488 30.7568 99.2273 30.7568 96.9662 30.7568 94.8508 31.2684 93.003 32.3161 91.1307 33.3392 89.6475 34.8252 88.5535 36.7012 87.4594 38.5771 86.9002 40.7699 86.9002 43.206 86.9002 45.6421 87.4594 47.8349 88.5535 49.7108 89.6475 51.5867 91.1307 53.0728 93.003 54.0961 94.8752 55.1191 96.9662 55.6552 99.2273 55.6552 101.488 55.6552 103.604 55.1435 105.452 54.0961 107.324 53.0728 108.807 51.5867 109.901 49.7108 110.995 47.8349 111.554 45.6421 111.554 43.206 111.554 40.7699 110.995 38.5771 109.901 36.7012 108.807 34.8252 107.324 33.3392 105.452 32.3161ZM107.251 43.206C107.251 46.2026 106.522 48.6387 105.063 50.3928 103.628 52.1469 101.659 53.0484 99.2273 53.0484 96.7961 53.0484 94.8264 52.1469 93.3921 50.3928 91.9331 48.6387 91.2037 46.2026 91.2037 43.206 91.2037 40.2094 91.9331 37.7733 93.3921 36.0191 94.8264 34.265 96.7961 33.3636 99.2273 33.3636 101.659 33.3636 103.628 34.265 105.063 36.0191 106.522 37.7733 107.251 40.2094 107.251 43.206Z" fill="#001E2B" transform="matrix(1 0 0 1.00206 935 485)"/><path d="M191.62 32.3161C189.747 31.2929 187.656 30.7568 185.395 30.7568 183.134 30.7568 181.019 31.2684 179.171 32.3161 177.299 33.3392 175.815 34.8252 174.721 36.7012 173.627 38.5771 173.068 40.7699 173.068 43.206 173.068 45.6421 173.627 47.8349 174.721 49.7108 175.815 51.5867 177.299 53.0728 179.171 54.0961 181.043 55.1191 183.134 55.6552 185.395 55.6552 187.656 55.6552 189.772 55.1435 191.62 54.0961 193.492 53.0728 194.975 51.5867 196.069 49.7108 197.163 47.8349 197.722 45.6421 197.722 43.206 197.722 40.7699 197.163 38.5771 196.069 36.7012 194.975 34.8252 193.467 33.3392 191.62 32.3161ZM193.419 43.206C193.419 46.2026 192.689 48.6387 191.23 50.3928 189.796 52.1469 187.826 53.0484 185.395 53.0484 182.964 53.0484 180.994 52.1469 179.56 50.3928 178.101 48.6387 177.372 46.2026 177.372 43.206 177.372 40.185 178.101 37.7733 179.56 36.0191 180.994 34.265 182.964 33.3636 185.395 33.3636 187.826 33.3636 189.796 34.265 191.23 36.0191 192.665 37.7733 193.419 40.2094 193.419 43.206Z" fill="#001E2B" transform="matrix(1 0 0 1.00206 935 485)"/><path d="M156.869 30.7568C154.91 30.7568 153.123 31.1728 151.507 32.0049 149.891 32.837 148.617 33.9631 147.711 35.4069 146.805 36.8264 146.34 38.4174 146.34 40.1061 146.34 41.6235 146.683 43.0185 147.393 44.2669 148.079 45.4661 149.009 46.4694 150.185 47.3015L146.683 52.0498C146.242 52.6371 146.193 53.4202 146.512 54.0565 146.854 54.7173 147.491 55.1091 148.226 55.1091L149.23 55.1091C148.25 55.7699 147.466 56.553 146.928 57.483 146.291 58.5353 145.973 59.6367 145.973 60.7625 145.973 62.8674 146.903 64.6052 148.74 65.9023 150.552 67.1995 153.098 67.8603 156.306 67.8603 158.534 67.8603 160.665 67.4931 162.599 66.7833 164.558 66.0737 166.15 65.0211 167.325 63.6507 168.525 62.2801 169.137 60.6158 169.137 58.7067 169.137 56.6999 168.403 55.2802 166.688 53.9098 165.219 52.7594 162.918 52.1477 160.053 52.1477L150.258 52.1477C150.234 52.1477 150.209 52.123 150.209 52.123 150.209 52.123 150.185 52.0742 150.209 52.0498L152.756 48.6233C153.441 48.9414 154.078 49.1372 154.641 49.2595 155.229 49.382 155.89 49.4308 156.624 49.4308 158.681 49.4308 160.542 49.0149 162.158 48.1827 163.775 47.3506 165.073 46.2248 166.003 44.7807 166.933 43.3612 167.399 41.7704 167.399 40.0817 167.399 38.2705 166.517 34.9663 164.117 33.2776 164.117 33.2532 164.142 33.2532 164.142 33.2532L169.407 33.8405 169.407 31.4176 160.983 31.4176C159.661 31.0016 158.29 30.7568 156.869 30.7568ZM159.808 46.0778C158.877 46.5673 157.873 46.8365 156.869 46.8365 155.229 46.8365 153.784 46.2492 152.56 45.099 151.335 43.9485 150.723 42.2598 150.723 40.1061 150.723 37.9524 151.335 36.2635 152.56 35.1133 153.784 33.9631 155.229 33.3755 156.869 33.3755 157.898 33.3755 158.877 33.6204 159.808 34.1342 160.738 34.6239 161.497 35.3825 162.11 36.386 162.697 37.3895 163.015 38.6376 163.015 40.1061 163.015 41.5991 162.722 42.8472 162.11 43.8263 161.522 44.8298 160.738 45.5884 159.808 46.0778ZM153.172 55.0845 159.808 55.0845C161.644 55.0845 162.82 55.4516 163.603 56.2349 164.387 57.018 164.779 58.0703 164.779 59.2942 164.779 61.0808 164.069 62.5493 162.648 63.6507 161.228 64.7521 159.318 65.315 156.967 65.315 154.91 65.315 153.196 64.85 151.947 63.9688 150.699 63.0878 150.062 61.7416 150.062 60.0285 150.062 58.9515 150.356 57.948 150.944 57.0671 151.531 56.1858 152.241 55.5495 153.172 55.0845Z" fill="#001E2B" transform="matrix(1 0 0 1.00206 935 485)"/><path d="M264.203 54.7586C263.72 54.4942 263.356 54.1098 263.066 53.6533 262.8 53.1729 262.653 52.6683 262.653 52.1157 262.653 51.563 262.8 51.0346 263.066 50.5781 263.332 50.0975 263.72 49.7372 264.203 49.4728 264.689 49.2087 265.221 49.0644 265.827 49.0644 266.432 49.0644 266.964 49.2087 267.45 49.4728 267.933 49.7372 268.297 50.1216 268.587 50.5781 268.854 51.0585 269 51.563 269 52.1157 269 52.6683 268.854 53.1968 268.587 53.6533 268.321 54.1339 267.933 54.4942 267.45 54.7586 266.964 55.0227 266.432 55.167 265.827 55.167 265.246 55.167 264.689 55.0469 264.203 54.7586ZM267.184 54.4222C267.594 54.2059 267.887 53.8696 268.129 53.4851 268.346 53.0767 268.468 52.6203 268.468 52.1157 268.468 51.6111 268.346 51.1547 268.129 50.7463 267.909 50.3379 267.594 50.0255 267.184 49.8092 266.771 49.5929 266.334 49.4728 265.827 49.4728 265.319 49.4728 264.882 49.5929 264.469 49.8092 264.059 50.0255 263.766 50.3618 263.525 50.7463 263.308 51.1547 263.186 51.6111 263.186 52.1157 263.186 52.6203 263.308 53.0767 263.525 53.4851 263.744 53.8935 264.059 54.2059 264.469 54.4222 264.882 54.6385 265.319 54.7586 265.827 54.7586 266.334 54.7586 266.796 54.6385 267.184 54.4222ZM264.518 53.5813 264.518 53.365 264.567 53.3411 264.714 53.3411C264.76 53.3411 264.809 53.3169 264.833 53.293 264.882 53.2449 264.882 53.221 264.882 53.1729L264.882 50.9384C264.882 50.8903 264.858 50.8425 264.833 50.8183 264.784 50.7702 264.76 50.7702 264.714 50.7702L264.567 50.7702 264.518 50.7463 264.518 50.53 264.567 50.5061 265.827 50.5061C266.19 50.5061 266.456 50.5781 266.674 50.7463 266.893 50.9145 266.989 51.1307 266.989 51.419 266.989 51.6353 266.918 51.8513 266.747 51.9956 266.578 52.1638 266.383 52.26 266.142 52.2839L266.432 52.3801 266.989 53.2688C267.037 53.3411 267.086 53.365 267.159 53.365L267.303 53.365 267.328 53.3892 267.328 53.6052 267.303 53.6294 266.554 53.6294 266.505 53.6052 265.729 52.3078 265.536 52.3078 265.536 53.1729C265.536 53.221 265.561 53.2688 265.585 53.293 265.634 53.3411 265.658 53.3411 265.705 53.3411L265.851 53.3411 265.9 53.365 265.9 53.5813 265.851 53.6052 264.567 53.6052 264.518 53.5813ZM265.753 51.9956C265.949 51.9956 266.117 51.9475 266.215 51.8274 266.31 51.7312 266.383 51.563 266.383 51.3709 266.383 51.1786 266.334 51.0346 266.239 50.9145 266.142 50.7944 265.995 50.7463 265.827 50.7463L265.729 50.7463C265.68 50.7463 265.634 50.7702 265.609 50.7944 265.561 50.8422 265.561 50.8664 265.561 50.9145L265.561 51.9956 265.753 51.9956Z" fill="#001E2B" transform="matrix(1 0 0 1.00206 935 485)"/></g></svg>